<svg xmlns="http://www.w3.org/2000/svg" viewBox="0 0 220 260" aria-label="Low-poly jackalope silhouette">
  <!--
    Monochrome silhouette version.
    Uses currentColor so it inherits the surrounding text/CSS color.
    Lighter opacities = highlight faces. Darker = shadow faces.
    Works in both dark and light mode automatically.
  -->

  <!-- ── ANTLERS ── -->
  <polygon points="108,68 116,62 168,24 160,30"    fill="currentColor" opacity="0.92"/>
  <polygon points="160,30 168,24 186,12 178,18"    fill="currentColor" opacity="0.88"/>
  <polygon points="138,45 148,40 136,22 126,26"    fill="currentColor" opacity="0.92"/>
  <polygon points="126,26 136,22 130,12 120,16"    fill="currentColor" opacity="0.88"/>
  <polygon points="162,26 172,22 178,12 170,14"    fill="currentColor" opacity="0.90"/>
  <polygon points="108,68 116,62 148,40 138,45 120,58" fill="currentColor" opacity="0.78"/>

  <!-- ── EAR ── -->
  <polygon points="82,70 82,58 110,58 208,58 208,72 110,72" fill="currentColor" opacity="0.82"/>
  <polygon points="85,68 85,62 110,62 202,62 202,68 110,68" fill="currentColor" opacity="0.55"/>
  <polygon points="188,62 208,60 208,68 190,68"    fill="currentColor" opacity="0.45"/>
  <polygon points="82,70 82,58 88,62 90,70"        fill="currentColor" opacity="0.92"/>

  <!-- ── HEAD ── -->
  <polygon points="56,64 82,58 82,72 65,74"        fill="currentColor" opacity="0.78"/>
  <polygon points="40,78 56,64 65,74 52,84"        fill="currentColor" opacity="0.70"/>
  <polygon points="32,92 40,78 52,84 42,98"        fill="currentColor" opacity="0.80"/>
  <polygon points="28,95 32,92 38,104 30,106"      fill="currentColor" opacity="0.85"/>
  <polygon points="28,95 32,90 34,96 30,98"        fill="currentColor" opacity="0.95"/>
  <polygon points="30,106 38,104 44,116 34,120"    fill="currentColor" opacity="0.80"/>
  <polygon points="34,120 44,116 54,128 42,130"    fill="currentColor" opacity="0.72"/>
  <polygon points="82,72 108,68 110,84 92,88"      fill="currentColor" opacity="0.88"/>
  <polygon points="92,88 110,84 112,102 96,108"    fill="currentColor" opacity="0.82"/>
  <polygon points="56,64 82,72 75,88 58,84"        fill="currentColor" opacity="0.85"/>
  <polygon points="58,84 75,88 70,105 52,108"      fill="currentColor" opacity="0.80"/>
  <polygon points="40,78 58,84 52,108 38,104"      fill="currentColor" opacity="0.75"/>
  <polygon points="52,108 70,105 68,125 50,128"    fill="currentColor" opacity="0.72"/>
  <polygon points="96,108 112,102 114,120 98,124"  fill="currentColor" opacity="0.78"/>

  <!-- ── EYE (cutout) ── -->
  <circle cx="52" cy="86" r="6" fill="var(--bg, #1a1b2e)"/>

  <!-- ── NECK ── -->
  <polygon points="50,128 68,125 72,142 54,145"    fill="currentColor" opacity="0.70"/>
  <polygon points="68,125 98,124 100,140 72,142"   fill="currentColor" opacity="0.75"/>

  <!-- ── BODY ── -->
  <polygon points="100,140 128,132 138,148 112,152" fill="currentColor" opacity="0.85"/>
  <polygon points="128,132 158,142 162,158 138,148" fill="currentColor" opacity="0.80"/>
  <polygon points="158,142 180,155 182,172 162,158" fill="currentColor" opacity="0.85"/>
  <polygon points="72,142 100,140 98,162 74,165"   fill="currentColor" opacity="0.75"/>
  <polygon points="74,165 98,162 95,185 72,188"    fill="currentColor" opacity="0.70"/>
  <polygon points="98,162 112,152 115,172 95,175"  fill="currentColor" opacity="0.80"/>
  <polygon points="112,152 138,148 140,168 115,172" fill="currentColor" opacity="0.85"/>
  <polygon points="140,168 162,158 165,178 142,182" fill="currentColor" opacity="0.80"/>
  <polygon points="162,158 182,172 185,192 165,178" fill="currentColor" opacity="0.85"/>
  <polygon points="95,175 115,172 112,195 90,198"  fill="currentColor" opacity="0.75"/>
  <polygon points="112,195 140,168 142,182 115,198" fill="currentColor" opacity="0.80"/>
  <polygon points="142,182 165,178 168,200 144,204" fill="currentColor" opacity="0.75"/>
  <polygon points="165,178 185,192 186,212 168,200" fill="currentColor" opacity="0.80"/>
  <polygon points="54,145 72,142 74,165 56,168"    fill="currentColor" opacity="0.65"/>
  <polygon points="56,168 74,165 72,188 54,192"    fill="currentColor" opacity="0.60"/>
  <polygon points="54,192 72,188 70,212 50,215"    fill="currentColor" opacity="0.55"/>
  <polygon points="90,198 112,195 110,218 86,222"  fill="currentColor" opacity="0.70"/>
  <polygon points="110,218 115,198 144,204 140,222" fill="currentColor" opacity="0.75"/>
  <polygon points="140,222 144,204 168,200 165,222" fill="currentColor" opacity="0.70"/>
  <polygon points="165,222 168,200 186,212 182,228" fill="currentColor" opacity="0.75"/>

  <!-- ── HAUNCHES / FEET ── -->
  <polygon points="50,215 70,212 68,232 48,235"    fill="currentColor" opacity="0.60"/>
  <polygon points="48,235 68,232 65,248 45,250"    fill="currentColor" opacity="0.55"/>
  <polygon points="86,222 110,218 108,238 82,240"  fill="currentColor" opacity="0.62"/>
  <polygon points="140,222 165,222 162,240 138,242" fill="currentColor" opacity="0.70"/>
  <polygon points="162,240 165,222 182,228 178,245" fill="currentColor" opacity="0.65"/>
  <polygon points="178,245 182,228 192,218 188,238" fill="currentColor" opacity="0.70"/>

  <!-- ── TAIL ── -->
  <ellipse cx="50" cy="192" rx="16" ry="13" fill="currentColor" opacity="0.90"/>
  <ellipse cx="50" cy="190" rx="10" ry="8"  fill="currentColor" opacity="0.98"/>

</svg>
